<?xml version="1.0" encoding="UTF-8" standalone="no"?>
<!-- Uploaded to: SVG Repo, www.svgrepo.com, Generator: SVG Repo Mixer Tools -->

<svg
   height="800px"
   width="800px"
   version="1.1"
   id="Layer_1"
   viewBox="0 0 512.001 512.001"
   xml:space="preserve"
   sodipodi:docname="ghost_pink.svg"
   inkscape:version="1.3.2 (091e20e, 2023-11-25, custom)"
   xmlns:inkscape="http://www.inkscape.org/namespaces/inkscape"
   xmlns:sodipodi="http://sodipodi.sourceforge.net/DTD/sodipodi-0.dtd"
   xmlns="http://www.w3.org/2000/svg"
   xmlns:svg="http://www.w3.org/2000/svg"><defs
   id="defs8" /><sodipodi:namedview
   id="namedview8"
   pagecolor="#505050"
   bordercolor="#eeeeee"
   borderopacity="1"
   inkscape:showpageshadow="0"
   inkscape:pageopacity="0"
   inkscape:pagecheckerboard="0"
   inkscape:deskcolor="#d1d1d1"
   inkscape:zoom="1.49875"
   inkscape:cx="399.33278"
   inkscape:cy="400"
   inkscape:window-width="2560"
   inkscape:window-height="1377"
   inkscape:window-x="-8"
   inkscape:window-y="-8"
   inkscape:window-maximized="1"
   inkscape:current-layer="Layer_1" />
<path
   style="fill:#e555ff;fill-opacity:1"
   d="M248.399,0.135C135.421,4.152,47.514,100.436,47.514,213.484V508.8c0,2.792,3.432,4.127,5.319,2.069  l57.191-62.39c3.756-4.098,10.216-4.098,13.971,0l55.336,60.365c3.858,4.209,10.493,4.209,14.35,0l55.334-60.365  c3.756-4.098,10.216-4.098,13.971,0l55.334,60.365c3.858,4.209,10.493,4.209,14.35,0l55.336-60.365  c3.756-4.098,10.216-4.098,13.971,0l57.191,62.39c1.887,2.059,5.319,0.724,5.319-2.069V208.486  C464.489,90.819,367.009-4.082,248.399,0.135z"
   id="path1" />
<path
   style="fill:#c53bd0;fill-opacity:1"
   d="M151.758,227.632c0-107.205,79.072-199.275,183.593-211.938  C308.687,4.707,279.273-0.963,248.399,0.135C135.421,4.152,47.514,100.436,47.514,213.484V508.8c0,2.792,3.432,4.127,5.319,2.069  l57.191-62.39c3.755-4.098,10.216-4.098,13.971,0l27.762,30.285V227.632H151.758z"
   id="path2" />
<path
   style="fill:#FFFFFF;"
   d="M186.385,303.255L186.385,303.255c-31.001,0-56.132-25.131-56.132-56.132v-20.412  c0-31.001,25.131-56.132,56.132-56.132l0,0c31.001,0,56.132,25.131,56.132,56.132v20.412  C242.515,278.124,217.385,303.255,186.385,303.255z"
   id="path3" />
<path
   style="fill:#E4EAF6;"
   d="M217.002,293.049c-31.001,0-56.132-25.131-56.132-56.132v-20.412  c0-18.952,9.419-35.676,23.803-45.839c-30.201,0.912-54.421,25.621-54.421,56.045v20.412c0,31.001,25.131,56.132,56.132,56.132  c12.048,0,23.184-3.831,32.327-10.292C218.139,292.98,217.579,293.049,217.002,293.049z"
   id="path4" />
<path
   style="fill:#82B9FF;"
   d="M201.693,262.431L201.693,262.431c-11.273,0-20.412-9.138-20.412-20.412v-10.205  c0-11.273,9.138-20.412,20.412-20.412l0,0c11.273,0,20.412,9.138,20.412,20.412v10.205  C222.105,253.294,212.966,262.431,201.693,262.431z"
   id="path5" />
<path
   style="fill:#FFFFFF;"
   d="M325.619,303.255L325.619,303.255c-31.001,0-56.132-25.131-56.132-56.132v-20.412  c0-31.001,25.131-56.132,56.132-56.132l0,0c31.001,0,56.132,25.131,56.132,56.132v20.412  C381.75,278.124,356.619,303.255,325.619,303.255z"
   id="path6" />
<path
   style="fill:#E4EAF6;"
   d="M356.236,293.049c-31.001,0-56.132-25.131-56.132-56.132v-20.412  c0-18.952,9.419-35.676,23.804-45.839c-30.201,0.912-54.421,25.621-54.421,56.045v20.412c0,31.001,25.131,56.132,56.132,56.132  c12.048,0,23.184-3.831,32.327-10.292C357.374,292.98,356.814,293.049,356.236,293.049z"
   id="path7" />
<path
   style="fill:#82B9FF;"
   d="M340.927,262.431L340.927,262.431c-11.273,0-20.412-9.138-20.412-20.412v-10.205  c0-11.273,9.138-20.412,20.412-20.412l0,0c11.273,0,20.412,9.138,20.412,20.412v10.205  C361.339,253.294,352.201,262.431,340.927,262.431z"
   id="path8" />
</svg>
