<?xml version="1.0" encoding="UTF-8" standalone="no"?>
<!-- Uploaded to: SVG Repo, www.svgrepo.com, Generator: SVG Repo Mixer Tools -->

<svg
   height="800px"
   width="800px"
   version="1.1"
   id="Layer_1"
   viewBox="0 0 512 512"
   xml:space="preserve"
   sodipodi:docname="gamer-svgrepo-com.svg"
   inkscape:version="1.3.2 (091e20e, 2023-11-25, custom)"
   xmlns:inkscape="http://www.inkscape.org/namespaces/inkscape"
   xmlns:sodipodi="http://sodipodi.sourceforge.net/DTD/sodipodi-0.dtd"
   xmlns="http://www.w3.org/2000/svg"
   xmlns:svg="http://www.w3.org/2000/svg"><defs
   id="defs6" /><sodipodi:namedview
   id="namedview6"
   pagecolor="#505050"
   bordercolor="#eeeeee"
   borderopacity="1"
   inkscape:showpageshadow="0"
   inkscape:pageopacity="0"
   inkscape:pagecheckerboard="0"
   inkscape:deskcolor="#d1d1d1"
   inkscape:zoom="1.49875"
   inkscape:cx="399.66639"
   inkscape:cy="400"
   inkscape:window-width="2560"
   inkscape:window-height="1377"
   inkscape:window-x="-8"
   inkscape:window-y="-8"
   inkscape:window-maximized="1"
   inkscape:current-layer="Layer_1" />









<g
   id="g6"
   transform="translate(83.607539,4.4703637e-4)"><path
     style="fill:#ffd782"
     d="m 209.638,244.628 129.736,-95.594 c 6.241,-4.599 7.204,-13.545 2.155,-19.428 C 301.171,82.587 238.774,55.049 170.311,63.221 81.862,73.778 10.999,145.353 1.223,233.893 c -12.937,117.155 78.443,216.313 192.983,216.313 58.996,0 111.782,-26.358 147.389,-67.889 5.021,-5.856 3.992,-14.775 -2.218,-19.35 L 209.638,267.37 c -7.661,-5.645 -7.661,-17.096 0,-22.742 z"
     id="path1" /><path
     style="fill:#ffc36e"
     d="M 255.491,406.068 C 140.951,406.068 49.571,306.911 62.507,189.755 67.182,147.409 85.94,109.043 113.803,79.279 53.119,107.021 8.797,165.293 1.223,233.892 c -12.937,117.156 78.443,216.314 192.983,216.314 55.956,0 106.298,-23.738 141.721,-61.62 -24.506,11.197 -51.724,17.482 -80.436,17.482 z"
     id="path2" /><circle
     style="fill:#5b5d6e"
     cx="220.689"
     cy="150.06799"
     r="26.483"
     id="circle5" /><path
     style="fill:#464655"
     d="m 231.724,163.31 c -13.407,0 -24.276,-10.869 -24.276,-24.276 0,-5.134 1.614,-9.88 4.335,-13.802 -10.222,3.669 -17.577,13.351 -17.577,24.836 0,14.626 11.857,26.483 26.483,26.483 11.486,0 21.167,-7.354 24.836,-17.577 -3.921,2.72 -8.667,4.336 -13.801,4.336 z"
     id="path6" /></g>
</svg>
